<svg id="Layer_1" enable-background="new 0 0 256 256" height="512" viewBox="0 0 256 256" width="512" xmlns="http://www.w3.org/2000/svg"><path d="m8.571 200.495h238.858v11.126h-238.858z" fill="#7bac51"/><path d="m28.781 200.495h64.242 69.954 64.242v-88.769h-198.438z" fill="#fcc24c"/><path d="m188.273 44.379h-120.546l-49.982 67.347h220.51z" fill="#ff4397"/><path d="m219.514 111.726h7.705v88.769h-7.705z" fill="#dea42e"/><path d="m28.781 111.726h7.705v88.769h-7.705z" fill="#fce06a"/><path d="m44.88 130.238h51.139v18.595h-51.139z" fill="#f4efed"/><path d="m44.88 162.967h51.139v18.595h-51.139z" fill="#f4efed"/><path d="m159.981 130.238h51.139v18.595h-51.139z" fill="#f4efed"/><path d="m112.604 130.238h30.792v18.595h-30.792z" fill="#f4efed"/><path d="m159.981 162.967h51.139v18.595h-51.139z" fill="#f4efed"/><path d="m237.798 200.495h9.631v11.126h-9.631z" fill="#5d8e33"/><path d="m8.571 200.495h9.631v11.126h-9.631z" fill="#99ca6f"/><path d="m14.717 184.991h7.492v15.503h-7.492z" fill="#fcc24c"/><path d="m139.647 159.074h-23.293c-2.071 0-3.749 1.679-3.749 3.749v37.672h30.792v-37.672c-.001-2.071-1.68-3.749-3.75-3.749z" fill="#526faa"/><path d="m188.273 44.379h-9.631l49.981 67.347h9.632z" fill="#e12579"/><path d="m67.727 44.379h9.631l-49.982 67.347h-9.631z" fill="#ff61b5"/><path d="m128 60.08c-8.503 0-15.396 6.893-15.396 15.396v17.447h30.792v-17.447c0-8.503-6.893-15.396-15.396-15.396z" fill="#f4efed"/><g fill="#690589"><path d="m143.396 202.495h-30.792c-1.104 0-2-.896-2-2v-37.672c0-3.17 2.579-5.75 5.75-5.75h23.293c3.171 0 5.75 2.579 5.75 5.75v37.672c-.001 1.105-.896 2-2.001 2zm-28.792-4h26.792v-35.672c0-.965-.785-1.75-1.75-1.75h-23.293c-.965 0-1.75.785-1.75 1.75v35.672z"/><path d="m96.019 150.833h-51.139c-1.104 0-2-.896-2-2v-18.595c0-1.104.896-2 2-2h51.139c1.104 0 2 .896 2 2v18.595c0 1.104-.895 2-2 2zm-49.139-4h47.139v-14.595h-47.139z"/><path d="m96.019 183.562h-51.139c-1.104 0-2-.896-2-2v-18.595c0-1.104.896-2 2-2h51.139c1.104 0 2 .896 2 2v18.595c0 1.105-.895 2-2 2zm-49.139-4h47.139v-14.595h-47.139z"/><path d="m211.119 150.833h-51.139c-1.104 0-2-.896-2-2v-18.595c0-1.104.896-2 2-2h51.139c1.104 0 2 .896 2 2v18.595c0 1.104-.895 2-2 2zm-49.139-4h47.139v-14.595h-47.139z"/><path d="m143.396 150.833h-30.792c-1.104 0-2-.896-2-2v-18.595c0-1.104.896-2 2-2h30.792c1.104 0 2 .896 2 2v18.595c0 1.104-.895 2-2 2zm-28.792-4h26.792v-14.595h-26.792z"/><path d="m211.119 183.562h-51.139c-1.104 0-2-.896-2-2v-18.595c0-1.104.896-2 2-2h51.139c1.104 0 2 .896 2 2v18.595c0 1.105-.895 2-2 2zm-49.139-4h47.139v-14.595h-47.139z"/><path d="m227.219 202.495h-198.438c-1.104 0-2-.896-2-2v-88.769c0-1.104.896-2 2-2h198.438c1.104 0 2 .896 2 2v88.769c0 1.105-.896 2-2 2zm-196.438-4h194.438v-84.769h-194.438z"/><path d="m238.255 113.726h-220.51c-.756 0-1.447-.426-1.787-1.101s-.27-1.484.181-2.091l49.981-67.347c.377-.508.973-.808 1.606-.808h120.547c.633 0 1.229.3 1.606.808l49.981 67.347c.45.607.52 1.416.18 2.091-.338.675-1.029 1.101-1.785 1.101zm-216.535-4h212.56l-47.013-63.347h-118.534z"/><path d="m53.48 79.176c-.415 0-.832-.128-1.19-.394-.887-.658-1.072-1.911-.414-2.798l6.457-8.7c.658-.888 1.911-1.073 2.798-.414.887.658 1.072 1.911.414 2.798l-6.457 8.7c-.393.528-.997.808-1.608.808z"/><path d="m70.45 150.833c-1.104 0-2-.896-2-2v-18.595c0-1.104.896-2 2-2s2 .896 2 2v18.595c0 1.104-.896 2-2 2z"/><path d="m70.45 183.562c-1.104 0-2-.896-2-2v-18.595c0-1.104.896-2 2-2s2 .896 2 2v18.595c0 1.105-.896 2-2 2z"/><path d="m185.55 150.833c-1.104 0-2-.896-2-2v-18.595c0-1.104.896-2 2-2s2 .896 2 2v18.595c0 1.104-.896 2-2 2z"/><path d="m185.55 183.562c-1.104 0-2-.896-2-2v-18.595c0-1.104.896-2 2-2s2 .896 2 2v18.595c0 1.105-.896 2-2 2z"/><path d="m143.396 94.923h-30.792c-1.104 0-2-.896-2-2v-17.447c0-9.592 7.804-17.396 17.396-17.396 9.593 0 17.396 7.804 17.396 17.396v17.447c0 1.105-.895 2-2 2zm-28.792-4h26.792v-15.447c0-7.387-6.01-13.396-13.396-13.396s-13.396 6.009-13.396 13.396z"/><path d="m128 94.923c-1.104 0-2-.896-2-2v-32.843c0-1.104.896-2 2-2s2 .896 2 2v32.843c0 1.105-.896 2-2 2z"/><path d="m143.396 78.502h-30.792c-1.104 0-2-.896-2-2s.896-2 2-2h30.792c1.104 0 2 .896 2 2s-.895 2-2 2z"/><path d="m247.429 213.621h-238.858c-1.104 0-2-.896-2-2v-11.125c0-1.104.896-2 2-2h238.858c1.104 0 2 .896 2 2v11.125c0 1.104-.896 2-2 2zm-236.858-4h234.858v-7.125h-234.858z"/><path d="m22.209 202.495h-7.492c-1.104 0-2-.896-2-2v-15.504c0-1.104.896-2 2-2h7.492c1.104 0 2 .896 2 2v15.504c0 1.105-.895 2-2 2zm-5.492-4h3.492v-11.504h-3.492z"/></g><path d="m18.463 184.991h-14.463l7.232-23.66 7.231-23.66 7.232 23.66 7.232 23.66z" fill="#7bac51"/><path d="m11.232 161.331 7.231-23.66-7.721 47.32h-6.742z" fill="#99ca6f"/><path d="m32.927 186.991h-28.927c-.634 0-1.23-.301-1.607-.81-.377-.51-.491-1.168-.305-1.774l14.463-47.32c.257-.841 1.033-1.416 1.913-1.416.879 0 1.656.574 1.913 1.416l14.463 47.32c.186.606.072 1.265-.305 1.774-.378.509-.974.81-1.608.81zm-26.224-4h23.521l-11.761-38.478z" fill="#690589"/><path d="m237.537 184.991h-14.464l7.232-23.66 7.232-23.66 7.231 23.66 7.232 23.66z" fill="#7bac51"/><path d="m233.79 184.991h7.492v15.503h-7.492z" fill="#fcc24c"/><path d="m241.283 202.495h-7.493c-1.104 0-2-.896-2-2v-15.504c0-1.104.896-2 2-2h7.493c1.104 0 2 .896 2 2v15.504c0 1.105-.895 2-2 2zm-5.493-4h3.493v-11.504h-3.493z" fill="#690589"/><path d="m244.768 161.331-7.231-23.66 7.721 47.32h6.742z" fill="#5d8e33"/><path d="m252 186.991h-28.927c-.634 0-1.23-.301-1.607-.81-.377-.51-.49-1.168-.306-1.774l14.464-47.32c.258-.841 1.034-1.416 1.913-1.416.88 0 1.655.574 1.913 1.416l14.463 47.32c.185.606.071 1.265-.306 1.774s-.973.81-1.607.81zm-26.225-4h23.522l-11.761-38.478z" fill="#690589"/></svg>